<?xml version="1.0" encoding="UTF-8"?>
<svg version="1.1" xmlns="http://www.w3.org/2000/svg" width="1254" height="1254">
<path d="M0 0 C413.82 0 827.64 0 1254 0 C1254 413.82 1254 827.64 1254 1254 C840.18 1254 426.36 1254 0 1254 C0 840.18 0 426.36 0 0 Z " fill="#115035" transform="translate(0,0)"/>
<path d="M0 0 C0.66 0 1.32 0 2 0 C3.60358391 2.38870344 5.09549809 4.77905513 6.5625 7.25 C10.9906993 14.52087467 15.74249693 21.29547774 21 28 C21.60972656 28.80308594 22.21945312 29.60617187 22.84765625 30.43359375 C34.81745874 45.91047213 49.1386489 60.83151641 64.484375 72.9765625 C66.75297519 74.80130613 68.8725774 76.70246396 71 78.6875 C87.56750448 93.54822782 107.10080924 105.80534333 125.625 118.0625 C175.87626988 151.39800569 213.20918508 192.29421547 226.53857422 252.57910156 C227.70989198 258.72449146 228.14574646 264.61769821 228.13422108 270.85069942 C228.13657331 271.72251526 228.13892554 272.5943311 228.14134905 273.4925656 C228.14801019 276.41619383 228.1475817 279.33977732 228.14717102 282.26341248 C228.1504714 284.37977559 228.15419734 286.49613808 228.1583125 288.61249977 C228.16832006 294.43024773 228.17204726 300.24798536 228.17470181 306.0657407 C228.17860833 312.33918071 228.18818615 318.61261257 228.19691467 324.88604736 C228.21573182 339.31774823 228.22593151 353.74944809 228.23437535 368.18115816 C228.23858414 375.31304377 228.24380571 382.44492854 228.24905988 389.57681345 C228.26694483 413.99157536 228.28194214 438.40633752 228.28938007 462.821105 C228.28985483 464.35305069 228.29033072 465.88499638 228.29080774 467.41694206 C228.29104411 468.17663962 228.29128049 468.93633718 228.29152403 469.71905587 C228.29272521 473.56799363 228.29394067 477.41693139 228.29516602 481.26586914 C228.29540617 482.02969717 228.29564632 482.79352519 228.29589374 483.58049952 C228.30379098 508.35925107 228.32723425 533.13795483 228.35972196 557.9166855 C228.39401104 584.11715152 228.41373016 610.31758956 228.41702431 636.51807839 C228.41744186 639.39344634 228.41792142 642.26881427 228.41844749 645.14418221 C228.41857069 645.85217352 228.41869388 646.56016483 228.4188208 647.28961042 C228.42115352 658.68649522 228.43681694 670.08332448 228.45728934 681.48018948 C228.47753336 692.9313785 228.48269756 704.38247601 228.47351871 715.83368426 C228.46896246 722.03818374 228.47093739 728.24250269 228.49028015 734.44697762 C228.50782908 740.12493467 228.50698143 745.80257838 228.49138286 751.48053838 C228.48899425 753.5363163 228.4933948 755.59211546 228.50521151 757.64786082 C228.52026972 760.44010935 228.51069993 763.23123886 228.49498463 766.02345943 C228.50520683 766.8234716 228.51542904 767.62348377 228.52596101 768.44773874 C228.44475465 775.04873499 226.41652706 780.18487054 222.10546875 785.20703125 C215.66619932 790.59713254 210.30656479 793.31213663 201.8203125 793.3984375 C193.77144387 792.26133972 187.56278829 788.77733693 180.9375 784.25 C179.17328097 783.07340994 177.40759161 781.89902228 175.640625 780.7265625 C174.72087891 780.11458008 173.80113281 779.50259766 172.85351562 778.87207031 C168.02014084 775.70109856 163.10165947 772.66863674 158.1875 769.625 C149.14446962 764.00614953 140.19930172 758.25387457 131.29589844 752.41674805 C123.06488793 747.02530893 114.75625827 741.76544196 106.42626953 736.52880859 C102.06750998 733.78232517 97.72117224 731.01634424 93.375 728.25 C92.46210205 727.66911621 91.5492041 727.08823242 90.60864258 726.48974609 C85.6972569 723.36218661 80.79108936 720.22667692 75.890625 717.08203125 C63.53764712 709.1560204 51.13967497 701.3098396 38.68359375 693.546875 C34.1563754 690.72475279 29.63763779 687.88963093 25.12719727 685.04077148 C23.53137424 684.03294209 21.93425591 683.02716007 20.33569336 682.02368164 C17.04999044 679.95665498 13.78674063 677.87607108 10.59375 675.66796875 C9.15515625 674.68763672 9.15515625 674.68763672 7.6875 673.6875 C6.51767578 672.85798828 6.51767578 672.85798828 5.32421875 672.01171875 C1.95363207 670.5445222 0.53212092 670.87764382 -3 672 C-6.5239987 673.91282973 -9.84597996 676.09965178 -13.1875 678.3125 C-15.17293597 679.60193383 -17.15861707 680.8909903 -19.14453125 682.1796875 C-20.13404785 682.82647461 -21.12356445 683.47326172 -22.14306641 684.13964844 C-26.1956266 686.77855706 -30.28214904 689.36169714 -34.375 691.9375 C-35.12958496 692.41396973 -35.88416992 692.89043945 -36.66162109 693.38134766 C-43.19789649 697.50586415 -49.75541537 701.59617992 -56.3125 705.6875 C-63.69536072 710.29516939 -71.05504967 714.93102427 -78.36328125 719.65625 C-82.99720516 722.64978856 -87.656456 725.60353786 -92.3125 728.5625 C-100.3843211 733.69384205 -108.44577316 738.84108753 -116.5 744 C-124.32559054 749.01224599 -132.15741916 754.01437967 -140 759 C-146.9151744 763.39649008 -153.82479369 767.80151386 -160.72705078 772.21826172 C-162.88621831 773.59983259 -165.0460354 774.98038891 -167.20654297 776.35986328 C-171.63860494 779.19233157 -176.0651703 782.02913192 -180.4453125 784.94140625 C-181.08210938 785.36188232 -181.71890625 785.7823584 -182.375 786.21557617 C-183.96566167 787.26943391 -185.54962516 788.3333842 -187.1328125 789.3984375 C-193.71651328 793.07598153 -200.60094406 793.96553615 -208 793 C-215.31187451 790.74130313 -220.38178503 786.75970567 -224 780 C-226.04322328 774.98017315 -226.28648142 770.66898464 -226.26285553 765.34383202 C-226.2669608 764.48085033 -226.27106606 763.61786863 -226.27529573 762.72873598 C-226.2866297 759.82889616 -226.283722 756.92924651 -226.28088379 754.02938843 C-226.28605153 751.93226548 -226.29207797 749.83514451 -226.29889059 747.73802626 C-226.3150341 741.96802384 -226.31860995 736.19807118 -226.32008553 730.42804885 C-226.32378639 724.20668817 -226.3388817 717.98535332 -226.35235596 711.76400757 C-226.38095118 697.44115314 -226.39257994 683.11831496 -226.40173985 668.79543804 C-226.40641551 661.70900691 -226.41362157 654.622579 -226.4211306 647.53615039 C-226.44681042 623.25357784 -226.46824071 598.97100708 -226.4751358 574.68842125 C-226.47557906 573.16401469 -226.47602263 571.63960813 -226.47646651 570.11520157 C-226.47690778 568.58718954 -226.47734875 567.05917751 -226.4777894 565.53116548 C-226.47867448 562.46592672 -226.47956872 559.40068797 -226.48046875 556.33544922 C-226.48068753 555.57544833 -226.48090631 554.81544744 -226.48113173 554.03241623 C-226.48837958 529.43524738 -226.52016476 504.83819691 -226.56684948 480.24107334 C-226.61617276 454.20581869 -226.64348766 428.17063158 -226.64587164 402.13532889 C-226.64621451 399.27025897 -226.64664535 396.40518907 -226.6471405 393.54011917 C-226.64725204 392.83471297 -226.64736358 392.12930677 -226.64747849 391.40252463 C-226.64976942 380.1034185 -226.67172841 368.80443472 -226.70091461 357.50536975 C-226.72981811 346.11753659 -226.73552201 334.72990184 -226.72003466 323.34202628 C-226.71226997 317.18560307 -226.71384036 311.02958674 -226.74214935 304.87321472 C-226.9514749 256.53863781 -219.60820005 215.69821018 -190 176 C-189.33226562 175.08863281 -188.66453125 174.17726563 -187.9765625 173.23828125 C-176.71746636 158.70826192 -162.84730895 145.78254088 -148 135 C-146.6246873 133.98089061 -145.24970346 132.9613373 -143.875 131.94140625 C-135.00974377 125.41405491 -125.93577176 119.2385144 -116.7565918 113.16308594 C-95.64135243 99.17052102 -75.0581476 84.1924588 -56.32421875 67.10546875 C-54.28726075 65.26022445 -52.21729153 63.4691833 -50.125 61.6875 C-41.83051489 54.45295924 -34.00603831 46.48557435 -27 38 C-26.58314941 37.50226074 -26.16629883 37.00452148 -25.73681641 36.49169922 C-16.70244725 25.66741333 -8.25137247 14.25868403 -1.28515625 1.9765625 C-0.86105469 1.32429687 -0.43695312 0.67203125 0 0 Z " fill="#125035" transform="translate(626,231)"/>
<path d="M0 0 C0.66 0 1.32 0 2 0 C3.60358391 2.38870344 5.09549809 4.77905513 6.5625 7.25 C10.9906993 14.52087467 15.74249693 21.29547774 21 28 C21.60972656 28.80308594 22.21945312 29.60617187 22.84765625 30.43359375 C34.81745874 45.91047213 49.1386489 60.83151641 64.484375 72.9765625 C66.75297519 74.80130613 68.8725774 76.70246396 71 78.6875 C87.56750448 93.54822782 107.10080924 105.80534333 125.625 118.0625 C175.87626988 151.39800569 213.20918508 192.29421547 226.53857422 252.57910156 C227.70989198 258.72449146 228.14574646 264.61769821 228.13422108 270.85069942 C228.13657331 271.72251526 228.13892554 272.5943311 228.14134905 273.4925656 C228.14801019 276.41619383 228.1475817 279.33977732 228.14717102 282.26341248 C228.1504714 284.37977559 228.15419734 286.49613808 228.1583125 288.61249977 C228.16832006 294.43024773 228.17204726 300.24798536 228.17470181 306.0657407 C228.17860833 312.33918071 228.18818615 318.61261257 228.19691467 324.88604736 C228.21573182 339.31774823 228.22593151 353.74944809 228.23437535 368.18115816 C228.23858414 375.31304377 228.24380571 382.44492854 228.24905988 389.57681345 C228.26694483 413.99157536 228.28194214 438.40633752 228.28938007 462.821105 C228.28985483 464.35305069 228.29033072 465.88499638 228.29080774 467.41694206 C228.29104411 468.17663962 228.29128049 468.93633718 228.29152403 469.71905587 C228.29272521 473.56799363 228.29394067 477.41693139 228.29516602 481.26586914 C228.29540617 482.02969717 228.29564632 482.79352519 228.29589374 483.58049952 C228.30379098 508.35925107 228.32723425 533.13795483 228.35972196 557.9166855 C228.39401104 584.11715152 228.41373016 610.31758956 228.41702431 636.51807839 C228.41744186 639.39344634 228.41792142 642.26881427 228.41844749 645.14418221 C228.41857069 645.85217352 228.41869388 646.56016483 228.4188208 647.28961042 C228.42115352 658.68649522 228.43681694 670.08332448 228.45728934 681.48018948 C228.47753336 692.9313785 228.48269756 704.38247601 228.47351871 715.83368426 C228.46896246 722.03818374 228.47093739 728.24250269 228.49028015 734.44697762 C228.50782908 740.12493467 228.50698143 745.80257838 228.49138286 751.48053838 C228.48899425 753.5363163 228.4933948 755.59211546 228.50521151 757.64786082 C228.52026972 760.44010935 228.51069993 763.23123886 228.49498463 766.02345943 C228.50520683 766.8234716 228.51542904 767.62348377 228.52596101 768.44773874 C228.44475465 775.04873499 226.41652706 780.18487054 222.10546875 785.20703125 C215.66619932 790.59713254 210.30656479 793.31213663 201.8203125 793.3984375 C193.77144387 792.26133972 187.56278829 788.77733693 180.9375 784.25 C179.17328097 783.07340994 177.40759161 781.89902228 175.640625 780.7265625 C174.72087891 780.11458008 173.80113281 779.50259766 172.85351562 778.87207031 C168.02014084 775.70109856 163.10165947 772.66863674 158.1875 769.625 C149.14446962 764.00614953 140.19930172 758.25387457 131.29589844 752.41674805 C123.06488793 747.02530893 114.75625827 741.76544196 106.42626953 736.52880859 C102.06750998 733.78232517 97.72117224 731.01634424 93.375 728.25 C92.46210205 727.66911621 91.5492041 727.08823242 90.60864258 726.48974609 C85.6972569 723.36218661 80.79108936 720.22667692 75.890625 717.08203125 C63.53764712 709.1560204 51.13967497 701.3098396 38.68359375 693.546875 C34.1563754 690.72475279 29.63763779 687.88963093 25.12719727 685.04077148 C23.53137424 684.03294209 21.93425591 683.02716007 20.33569336 682.02368164 C17.04999044 679.95665498 13.78674063 677.87607108 10.59375 675.66796875 C9.15515625 674.68763672 9.15515625 674.68763672 7.6875 673.6875 C6.51767578 672.85798828 6.51767578 672.85798828 5.32421875 672.01171875 C1.95363207 670.5445222 0.53212092 670.87764382 -3 672 C-6.5239987 673.91282973 -9.84597996 676.09965178 -13.1875 678.3125 C-15.17293597 679.60193383 -17.15861707 680.8909903 -19.14453125 682.1796875 C-20.13404785 682.82647461 -21.12356445 683.47326172 -22.14306641 684.13964844 C-26.1956266 686.77855706 -30.28214904 689.36169714 -34.375 691.9375 C-35.12958496 692.41396973 -35.88416992 692.89043945 -36.66162109 693.38134766 C-43.19789649 697.50586415 -49.75541537 701.59617992 -56.3125 705.6875 C-63.69536072 710.29516939 -71.05504967 714.93102427 -78.36328125 719.65625 C-82.99720516 722.64978856 -87.656456 725.60353786 -92.3125 728.5625 C-100.3843211 733.69384205 -108.44577316 738.84108753 -116.5 744 C-124.32559054 749.01224599 -132.15741916 754.01437967 -140 759 C-146.9151744 763.39649008 -153.82479369 767.80151386 -160.72705078 772.21826172 C-162.88621831 773.59983259 -165.0460354 774.98038891 -167.20654297 776.35986328 C-171.63860494 779.19233157 -176.0651703 782.02913192 -180.4453125 784.94140625 C-181.08210938 785.36188232 -181.71890625 785.7823584 -182.375 786.21557617 C-183.96566167 787.26943391 -185.54962516 788.3333842 -187.1328125 789.3984375 C-193.71651328 793.07598153 -200.60094406 793.96553615 -208 793 C-215.31187451 790.74130313 -220.38178503 786.75970567 -224 780 C-226.04322328 774.98017315 -226.28648142 770.66898464 -226.26285553 765.34383202 C-226.2669608 764.48085033 -226.27106606 763.61786863 -226.27529573 762.72873598 C-226.2866297 759.82889616 -226.283722 756.92924651 -226.28088379 754.02938843 C-226.28605153 751.93226548 -226.29207797 749.83514451 -226.29889059 747.73802626 C-226.3150341 741.96802384 -226.31860995 736.19807118 -226.32008553 730.42804885 C-226.32378639 724.20668817 -226.3388817 717.98535332 -226.35235596 711.76400757 C-226.38095118 697.44115314 -226.39257994 683.11831496 -226.40173985 668.79543804 C-226.40641551 661.70900691 -226.41362157 654.622579 -226.4211306 647.53615039 C-226.44681042 623.25357784 -226.46824071 598.97100708 -226.4751358 574.68842125 C-226.47557906 573.16401469 -226.47602263 571.63960813 -226.47646651 570.11520157 C-226.47690778 568.58718954 -226.47734875 567.05917751 -226.4777894 565.53116548 C-226.47867448 562.46592672 -226.47956872 559.40068797 -226.48046875 556.33544922 C-226.48068753 555.57544833 -226.48090631 554.81544744 -226.48113173 554.03241623 C-226.48837958 529.43524738 -226.52016476 504.83819691 -226.56684948 480.24107334 C-226.61617276 454.20581869 -226.64348766 428.17063158 -226.64587164 402.13532889 C-226.64621451 399.27025897 -226.64664535 396.40518907 -226.6471405 393.54011917 C-226.64725204 392.83471297 -226.64736358 392.12930677 -226.64747849 391.40252463 C-226.64976942 380.1034185 -226.67172841 368.80443472 -226.70091461 357.50536975 C-226.72981811 346.11753659 -226.73552201 334.72990184 -226.72003466 323.34202628 C-226.71226997 317.18560307 -226.71384036 311.02958674 -226.74214935 304.87321472 C-226.9514749 256.53863781 -219.60820005 215.69821018 -190 176 C-189.33226562 175.08863281 -188.66453125 174.17726563 -187.9765625 173.23828125 C-176.71746636 158.70826192 -162.84730895 145.78254088 -148 135 C-146.6246873 133.98089061 -145.24970346 132.9613373 -143.875 131.94140625 C-135.00974377 125.41405491 -125.93577176 119.2385144 -116.7565918 113.16308594 C-95.64135243 99.17052102 -75.0581476 84.1924588 -56.32421875 67.10546875 C-54.28726075 65.26022445 -52.21729153 63.4691833 -50.125 61.6875 C-41.83051489 54.45295924 -34.00603831 46.48557435 -27 38 C-26.58314941 37.50226074 -26.16629883 37.00452148 -25.73681641 36.49169922 C-16.70244725 25.66741333 -8.25137247 14.25868403 -1.28515625 1.9765625 C-0.86105469 1.32429687 -0.43695312 0.67203125 0 0 Z M0 91 C-1.58683817 92.77861978 -3.07718402 94.57652466 -4.5625 96.4375 C-14.77859525 108.8517305 -26.30328111 120.14663083 -39 130 C-40.11448518 130.91231177 -41.22629981 131.82789214 -42.3359375 132.74609375 C-56.03583971 144.0235543 -70.82766333 153.62879589 -85.70947266 163.2565918 C-97.58694101 170.95209943 -109.30450596 178.69271168 -120 188 C-120.99773437 188.86367188 -121.99546875 189.72734375 -123.0234375 190.6171875 C-129.73696268 196.53460489 -135.595992 202.85184127 -141 210 C-141.40460449 210.52432617 -141.80920898 211.04865234 -142.22607422 211.58886719 C-162.39355831 237.8430391 -170.36162863 268.31132725 -170.24050903 301.05235291 C-170.24138308 302.83071391 -170.2431377 304.60907467 -170.24568737 306.38743407 C-170.25012585 311.23345103 -170.24220581 316.07937836 -170.23213124 320.92538393 C-170.22344816 326.16647787 -170.22642032 331.40756726 -170.22793579 336.64866638 C-170.22898158 345.71572493 -170.22273703 354.78275456 -170.21146011 363.84980583 C-170.1951665 376.95903796 -170.18999316 390.06825618 -170.18748413 403.17749733 C-170.18311308 424.44931278 -170.16982 445.72111283 -170.15087891 466.99291992 C-170.13250483 487.64949466 -170.11835581 508.30606522 -170.10986328 528.96264648 C-170.10933783 530.23713974 -170.10881239 531.51163299 -170.10827102 532.82474726 C-170.10566083 539.21887021 -170.10313344 545.61299319 -170.10064721 552.0071162 C-170.07993308 605.00475476 -170.04472363 658.00237663 -170 711 C-165.56749484 708.80379993 -161.36494867 706.29552335 -157.125 703.75 C-156.24658447 703.22277344 -155.36816895 702.69554687 -154.46313477 702.15234375 C-145.08957591 696.49558604 -135.87073772 690.60269141 -126.65332031 684.69628906 C-122.54994206 682.07296627 -118.43202326 679.47287062 -114.3125 676.875 C-113.53664551 676.38555908 -112.76079102 675.89611816 -111.96142578 675.3918457 C-110.40922983 674.41268092 -108.85698409 673.43359508 -107.3046875 672.45458984 C-105.01454836 671.00918211 -102.72580343 669.56159316 -100.4375 668.11328125 C-88.67895607 660.6731075 -76.88428903 653.29158885 -65.08056641 645.92333984 C-61.04786765 643.40553981 -57.01634462 640.88586198 -52.98510742 638.36572266 C-51.00252634 637.12658921 -49.01961854 635.88797836 -47.03637695 634.64990234 C-41.82969654 631.39877262 -36.62932541 628.13808956 -31.4375 624.86328125 C-30.35984375 624.18523438 -29.2821875 623.5071875 -28.171875 622.80859375 C-26.11790717 621.51601055 -24.06570447 620.22061645 -22.015625 618.921875 C-6.90393445 609.42488715 -6.90393445 609.42488715 -0.125 609.5 C0.80054688 609.4896875 1.72609375 609.479375 2.6796875 609.46875 C11.84768763 610.93563002 19.44407028 615.86224058 27.125 620.8125 C29.24204261 622.15647825 31.35923451 623.50022139 33.4765625 624.84375 C34.55325195 625.53082031 35.62994141 626.21789062 36.73925781 626.92578125 C41.97214205 630.25451624 47.23707153 633.53156086 52.5 636.8125 C54.50795882 638.06747426 56.51577556 639.32267587 58.5234375 640.578125 C61.77712882 642.6118216 65.03190027 644.64374242 68.2890625 646.671875 C76.77516023 651.95855774 85.21856512 657.31014792 93.65014648 662.68334961 C101.97682472 667.98920651 110.32217204 673.26502698 118.67333984 678.53222656 C122.61660244 681.01983356 126.55821744 683.51004871 130.5 686 C135.3433408 689.05924239 140.18691094 692.11811979 145.03125 695.17578125 C146.27080444 695.95840332 146.27080444 695.95840332 147.53540039 696.75683594 C149.15663861 697.78016729 150.77821145 698.80296874 152.40014648 699.82519531 C155.79999991 701.96960239 159.19545363 704.11897296 162.56640625 706.30859375 C163.55511719 706.94925781 164.54382813 707.58992187 165.5625 708.25 C166.80193359 709.06210938 166.80193359 709.06210938 168.06640625 709.890625 C169.91758689 711.16588262 169.91758689 711.16588262 172 711 C172.06873283 656.94316929 172.12156263 602.88634302 172.15319599 548.82947718 C172.15694791 542.44116831 172.1608309 536.05285952 172.16479492 529.66455078 C172.16558185 528.39280448 172.16636878 527.12105818 172.16717956 525.81077412 C172.18021776 505.24455157 172.20386285 484.67835429 172.23145839 464.11214671 C172.25955675 442.99437996 172.27618562 421.87662642 172.28226548 400.75884175 C172.28637274 387.73805538 172.29932449 374.71734046 172.3237494 361.69657609 C172.33966132 352.75621843 172.34438805 343.81589747 172.34050413 334.8755267 C172.33859106 329.72477232 172.34143179 324.57414241 172.35761642 319.42341042 C172.37236793 314.693851 172.37285505 309.96449806 172.36269668 305.23492852 C172.36144384 303.5374061 172.36511914 301.83987002 172.37464955 300.14237389 C172.58001448 261.25518821 159.22596688 225.66096 132.03857422 197.61865234 C119.95838561 185.45270416 107.10390952 175.92191885 92.72265625 166.6875 C75.70758076 155.75073949 58.72765409 144.75111912 43 132 C42.13955078 131.31091553 42.13955078 131.31091553 41.26171875 130.60791016 C33.24257529 124.144204 25.87061861 117.06467384 18.5625 109.8125 C17.72162842 108.98097412 16.88075684 108.14944824 16.0144043 107.29272461 C11.39688591 102.65125979 7.22996879 97.93163023 3.39038086 92.6237793 C2.70214233 91.82000854 2.70214233 91.82000854 2 91 C1.34 91 0.68 91 0 91 Z " fill="#FCFCFC" transform="translate(626,231)"/>
<path d="M0 0 C3.98891864 1.55484532 6.32487395 4.34905476 9.0625 7.5 C23.839181 23.95155161 42.06602307 36.19669575 59.91796875 49.05859375 C60.9531665 49.80471924 60.9531665 49.80471924 62.00927734 50.56591797 C63.29269952 51.49047302 64.57682673 52.41405055 65.86181641 53.33642578 C79.78829634 63.36488903 79.78829634 63.36488903 82 70 C82.09868411 73.04655033 82.1390218 76.07022776 82.13371277 79.11695862 C82.13597833 80.06141136 82.13824388 81.00586409 82.14057809 81.97893661 C82.14693009 85.15727536 82.14608797 88.3355716 82.14526367 91.51391602 C82.14825435 93.78694718 82.15165667 96.05997783 82.15544128 98.33300781 C82.16429323 104.51665425 82.16661986 110.70028687 82.16725707 116.88393903 C82.16820498 122.03847334 82.17188178 127.1930044 82.17542917 132.34753746 C82.18311197 143.80707339 82.18609737 155.26660028 82.18542381 166.72613812 C82.18538386 167.41391244 82.1853439 168.10168677 82.18530273 168.81030273 C82.18526185 169.49891362 82.18522097 170.18752451 82.18517885 170.89700239 C82.18477207 182.06639946 82.19434972 193.23576286 82.2084411 204.40515018 C82.22278632 215.86584484 82.22952897 227.32651624 82.22884732 238.78722137 C82.22859167 245.22482206 82.23148009 251.66238465 82.24202538 258.09997749 C82.25166503 264.14998621 82.25181413 270.19992007 82.24450874 276.24993134 C82.24345783 278.47603654 82.2458555 280.70214631 82.2518692 282.92824364 C82.25952075 285.95559384 82.25499012 288.982681 82.24723816 292.01002502 C82.25238172 292.90096204 82.25752529 293.79189905 82.26282471 294.70983416 C82.22827149 300.77172851 82.22827149 300.77172851 80 303 C76.15722935 303.44910389 74.18744469 302.85564749 71.13671875 300.54296875 C70.42314209 300.0130835 69.70956543 299.48319824 68.97436523 298.93725586 C68.21969971 298.35983643 67.46503418 297.78241699 66.6875 297.1875 C65.0688922 295.98278278 63.44907783 294.77968512 61.828125 293.578125 C61.01666016 292.97291016 60.20519531 292.36769531 59.36914062 291.74414062 C55.94767797 289.22528971 52.45162145 286.82455006 48.9375 284.4375 C43.50873951 280.73286928 38.11493699 276.98399401 32.75 273.1875 C32.06123779 272.70168457 31.37247559 272.21586914 30.6628418 271.71533203 C26.64820167 268.88195527 22.64751561 266.03028297 18.65625 263.1640625 C16.85427778 261.88005238 15.05219631 260.59619557 13.25 259.3125 C12.40405273 258.69979248 11.55810547 258.08708496 10.68652344 257.45581055 C9.48817871 256.60563354 9.48817871 256.60563354 8.265625 255.73828125 C7.56211914 255.23337158 6.85861328 254.72846191 6.13378906 254.20825195 C3.68868596 252.82371932 1.79935919 252.24008949 -1 252 C-3.485785 253.48965435 -5.57018574 254.95219348 -7.8125 256.75 C-9.1571502 257.78217155 -10.50356009 258.81205401 -11.8515625 259.83984375 C-12.54024414 260.3694873 -13.22892578 260.89913086 -13.93847656 261.44482422 C-17.11569694 263.84166148 -20.39434009 266.07901204 -23.6875 268.3125 C-36.38235896 276.97349317 -48.9394883 285.83323438 -61.5 294.6875 C-62.54982056 295.42697876 -62.54982056 295.42697876 -63.62084961 296.18139648 C-64.27190674 296.64102783 -64.92296387 297.10065918 -65.59375 297.57421875 C-66.492146 298.20783325 -66.492146 298.20783325 -67.40869141 298.85424805 C-68.73198466 299.80702731 -70.02296033 300.80449761 -71.3046875 301.8125 C-73.63702891 303.4462138 -75.22017926 303.36576589 -78 303 C-80.65618977 300.34381023 -80.24768904 298.37300142 -80.276811 294.75931776 C-80.2737138 293.87568229 -80.2706166 292.99204682 -80.26742554 292.08163452 C-80.27422221 290.67871247 -80.27422221 290.67871247 -80.28115618 289.24744856 C-80.29387966 286.09379007 -80.29217469 282.94030251 -80.29052734 279.78662109 C-80.29650781 277.53332292 -80.30331223 275.2800268 -80.31088257 273.0267334 C-80.32860302 266.89013586 -80.3332406 260.75359404 -80.33451414 254.6169734 C-80.33640988 249.4978449 -80.34376402 244.37872948 -80.35085833 239.259606 C-80.36623197 227.87106887 -80.3721942 216.48256633 -80.37084763 205.09402232 C-80.37076772 204.41024593 -80.3706878 203.72646954 -80.37060547 203.02197266 C-80.37052371 202.33736075 -80.37044195 201.65274883 -80.37035771 200.94739111 C-80.36954555 189.86277141 -80.38866257 178.77828785 -80.4168822 167.69370751 C-80.4456291 156.31210658 -80.45905535 144.93059262 -80.45769465 133.54894698 C-80.45718453 127.15916016 -80.46289498 120.76952719 -80.48405075 114.37977219 C-80.50341417 108.36662029 -80.50357028 102.35376919 -80.48901749 96.34060669 C-80.48692567 94.13475734 -80.49165243 91.92888928 -80.5037384 89.72307205 C-80.51918422 86.70845045 -80.50988639 83.69486674 -80.49447632 80.68026733 C-80.50476344 79.8100162 -80.51505057 78.93976506 -80.52564943 78.04314268 C-80.45057014 71.38320471 -78.66740133 66.25502192 -74.421875 61.07421875 C-69.37975847 56.89208938 -64.04031356 53.21265183 -58.62451172 49.53759766 C-45.34853225 40.51600064 -32.50275964 31.02307143 -20.51074219 20.34326172 C-19.07119581 19.06330306 -17.6179523 17.79879876 -16.1640625 16.53515625 C-11.55413176 12.48589276 -7.32426984 8.32815762 -3.375 3.62890625 C-2 2 -2 2 0 0 Z " fill="#D3A954" transform="translate(626,386)"/>
<path d="M0 0 C4.52615993 3.67832017 8.39424999 7.41086363 12 12 C9 12 9 12 6.73828125 10.13671875 C5.93777344 9.32847656 5.13726563 8.52023437 4.3125 7.6875 C3.50425781 6.88699219 2.69601562 6.08648437 1.86328125 5.26171875 C0 3 0 3 0 0 Z " fill="#245541" transform="translate(635,332)"/>
<path d="M0 0 C0.66 0.33 1.32 0.66 2 1 C-0.80804268 3.96404505 -3.18315774 6.44499019 -7 8 C-7.66 7.34 -8.32 6.68 -9 6 C-6.03 4.02 -3.06 2.04 0 0 Z " fill="#2B5C47" transform="translate(604,914)"/>
<path d="M0 0 C2.29633824 3.44450737 2.54016485 5.93812283 3 10 C2.34 10 1.68 10 1 10 C-0.1577506 6.52674819 -0.06866652 3.63932552 0 0 Z " fill="#396654" transform="translate(790,481)"/>
<path d="M0 0 C0.88492145 2.47778006 1.11637742 3.66056586 0.25 6.1875 C-1 8 -1 8 -4 9 C-2.94124926 5.59687262 -1.99097846 2.98646769 0 0 Z " fill="#376654" transform="translate(472,461)"/>
<path d="M0 0 C3.99996286 1.33332095 4.83782337 3.4957827 7 7 C3.08597051 5.73058503 1.20927127 4.48832306 -1 1 C-0.67 0.67 -0.34 0.34 0 0 Z " fill="#2B5847" transform="translate(626,322)"/>
<path d="M0 0 C0.66 0.33 1.32 0.66 2 1 C0.02 3.31 -1.96 5.62 -4 8 C-4.99 7.67 -5.98 7.34 -7 7 C-4.69 4.69 -2.38 2.38 0 0 Z " fill="#DCE6E2" transform="translate(572,296)"/>
</svg>
